<svg xmlns="http://www.w3.org/2000/svg" width="1600" height="900" viewBox="0 0 1600 900" role="img" aria-labelledby="card-title card-desc">
  <title id="card-title">Minimum Jerk：一步一步算出航点速度与加速度</title>
  <desc id="card-desc">Dreamer Island PLANNING THEORY article card</desc>
  <defs>
    <linearGradient id="card-bg-4a874b77ffd4" x1="0" y1="0" x2="1" y2="1"><stop stop-color="#0b1224"/><stop offset=".62" stop-color="#15294a"/><stop offset="1" stop-color="#1f3a4f"/></linearGradient>
    <radialGradient id="card-glow-4a874b77ffd4"><stop stop-color="#8fc1ff" stop-opacity=".28"/><stop offset="1" stop-color="#8fc1ff" stop-opacity="0"/></radialGradient>
    <linearGradient id="card-line-4a874b77ffd4" x1="0" y1="0" x2="1" y2="0"><stop stop-color="#8fc1ff"/><stop offset="1" stop-color="#6fd6c2"/></linearGradient>
  </defs>
  <rect width="1600" height="900" fill="url(#card-bg-4a874b77ffd4)"/>
  <path d="M0 0h690l250 900H0Z" fill="#020b12" opacity=".34"/>
  <path d="M720-90 1660 250v740L910 900Z" fill="#6fd6c2" opacity=".055"/>
  <circle cx="1092.1" cy="386.5" r="510" fill="url(#card-glow-4a874b77ffd4)"/>
  <g opacity=".62"><path d="M-120 89 Q8 107.1 120 41.4 Q238 11.7 350 91.7 Q468 37.7 580 122.5 Q698 62.4 810 108.6 Q928 11.3 1040 88.3 Q1158 156 1270 92.9 Q1388 126.3 1500 132.1" fill="none" stroke="#8fc1ff" stroke-width="2" opacity="0.1"/><path d="M-120 255.9 Q8 259.4 120 229.2 Q238 252.7 350 241.6 Q468 291.8 580 295.4 Q698 213.3 810 265 Q928 216 1040 251 Q1158 252.8 1270 274.4 Q1388 205.9 1500 276.7" fill="none" stroke="#6fd6c2" stroke-width="2" opacity="0.1"/><path d="M-120 377.3 Q8 330.8 120 419.2 Q238 296.5 350 335.3 Q468 363.1 580 396.1 Q698 348.5 810 394.3 Q928 436 1040 392.4 Q1158 335.4 1270 359.9 Q1388 386 1500 353.2" fill="none" stroke="#8fc1ff" stroke-width="2" opacity="0.1"/><path d="M-120 523.7 Q8 532.2 120 515.5 Q238 555.8 350 555.3 Q468 475.8 580 481.7 Q698 581.4 810 546.6 Q928 565.3 1040 497.2 Q1158 499 1270 486.7 Q1388 536.3 1500 565.2" fill="none" stroke="#6fd6c2" stroke-width="2" opacity="0.1"/><path d="M-120 674.9 Q8 600.2 120 638.8 Q238 595.4 350 651 Q468 740.7 580 708.5 Q698 606.3 810 667.3 Q928 631.2 1040 719.2 Q1158 755.7 1270 649.8 Q1388 752.2 1500 638.3" fill="none" stroke="#8fc1ff" stroke-width="2" opacity="0.1"/><path d="M-120 805.9 Q8 784.2 120 848.9 Q238 867.1 350 779.6 Q468 759.1 580 798 Q698 816.9 810 762.7 Q928 831.2 1040 826.8 Q1158 777.9 1270 787.5 Q1388 848.7 1500 784.5" fill="none" stroke="#6fd6c2" stroke-width="2" opacity="0.1"/></g>
  <g transform="translate(1136.5 438) rotate(-1.2) scale(1.1)"><g fill="none" stroke="#6fd6c2" stroke-width="4" stroke-linecap="round" stroke-linejoin="round" opacity=".68"><path d="M-324 214H338M-282 258v-516"/><path d="m338 214-34-20v40M-282-258l-20 34h40"/><path d="M-282 104C-172-88-94 176 22-26S210-174 326-112"/></g><g fill="none" stroke="#8fc1ff" stroke-width="6" stroke-linecap="round" stroke-linejoin="round" transform="translate(96 -62)"><path d="M-96 0H96M0-78V78M-56-42 56 42M56-42-56 42"/><rect x="-48" y="-30" width="96" height="60" rx="12"/><circle cx="-108" cy="-94" r="42"/><circle cx="108" cy="-94" r="42"/><circle cx="-108" cy="94" r="42"/><circle cx="108" cy="94" r="42"/></g><circle cx="-282" cy="104" r="12" fill="#f0b86a"/></g>
  <path d="M72 76v748" stroke="url(#card-line-4a874b77ffd4)" stroke-width="4"/>
  <g font-family="Inter, ui-sans-serif, system-ui, -apple-system, BlinkMacSystemFont, Segoe UI, sans-serif">
    <!-- One label, sized to stay legible at card width (~400px); the post
         title is shown next to the card, so the card does not repeat it. -->
    <text x="112" y="812" fill="#dbe7ee" font-size="44" font-weight="700" letter-spacing="6">TRAJECTORY GENERATION</text>
  </g>
</svg>