<svg xmlns="http://www.w3.org/2000/svg" width="1600" height="900" viewBox="0 0 1600 900" role="img" aria-labelledby="card-title card-desc">
  <title id="card-title">从本地文件夹到 GitHub 新仓库：一步步推送指南</title>
  <desc id="card-desc">Dreamer Island ENGINEERING TOOLS article card</desc>
  <defs>
    <linearGradient id="card-bg-6dad9e56a69e" x1="0" y1="0" x2="1" y2="1"><stop stop-color="#07151f"/><stop offset=".62" stop-color="#102c36"/><stop offset="1" stop-color="#172b48"/></linearGradient>
    <radialGradient id="card-glow-6dad9e56a69e"><stop stop-color="#66d3aa" stop-opacity=".28"/><stop offset="1" stop-color="#66d3aa" stop-opacity="0"/></radialGradient>
    <linearGradient id="card-line-6dad9e56a69e" x1="0" y1="0" x2="1" y2="0"><stop stop-color="#66d3aa"/><stop offset="1" stop-color="#7caaff"/></linearGradient>
  </defs>
  <rect width="1600" height="900" fill="url(#card-bg-6dad9e56a69e)"/>
  <path d="M0 0h690l250 900H0Z" fill="#020b12" opacity=".34"/>
  <path d="M720-90 1660 250v740L910 900Z" fill="#7caaff" opacity=".055"/>
  <circle cx="1204.6" cy="389.9" r="510" fill="url(#card-glow-6dad9e56a69e)"/>
  <g opacity=".62"><path d="M-120 102.8 Q8 176.3 120 56.7 Q238 25.5 350 129 Q468 45.9 580 95.6 Q698 158.2 810 131.5 Q928 121.4 1040 69.9 Q1158 150.6 1270 122.4 Q1388 108.2 1500 112.7" fill="none" stroke="#66d3aa" stroke-width="2" opacity="0.2"/><path d="M-120 245.4 Q8 189.6 120 291.9 Q238 233.4 350 223.2 Q468 322.5 580 209.2 Q698 329.6 810 286.6 Q928 270.3 1040 277.1 Q1158 162.8 1270 223.8 Q1388 183.4 1500 197.8" fill="none" stroke="#7caaff" stroke-width="2" opacity="0.2"/><path d="M-120 374.5 Q8 405 120 326.5 Q238 399.9 350 363.7 Q468 319.7 580 367.6 Q698 459 810 413.2 Q928 430.4 1040 359.3 Q1158 319.9 1270 365.3 Q1388 373.9 1500 338.7" fill="none" stroke="#66d3aa" stroke-width="2" opacity="0.2"/><path d="M-120 523 Q8 481.1 120 501 Q238 544.7 350 542.6 Q468 524.3 580 491.2 Q698 466.3 810 527.6 Q928 555.2 1040 519.4 Q1158 593.4 1270 550.3 Q1388 496.3 1500 507.8" fill="none" stroke="#7caaff" stroke-width="2" opacity="0.1"/><path d="M-120 679.2 Q8 731.5 120 672 Q238 601.4 350 664 Q468 672.5 580 700.5 Q698 656.2 810 707.8 Q928 709.9 1040 700.7 Q1158 754.9 1270 673.1 Q1388 645.1 1500 679.2" fill="none" stroke="#66d3aa" stroke-width="2" opacity="0.1"/><path d="M-120 833.7 Q8 904.8 120 870.2 Q238 900.5 350 881.8 Q468 897.3 580 844.8 Q698 905.5 810 849.9 Q928 901.3 1040 834 Q1158 750.7 1270 873.3 Q1388 823 1500 879.9" fill="none" stroke="#7caaff" stroke-width="2" opacity="0.1"/></g>
  <g transform="translate(1142 402.4) rotate(0.1) scale(1.1)"><g fill="none" stroke="#7caaff" stroke-width="4" stroke-linecap="round" stroke-linejoin="round" opacity=".7"><path d="M-216-236v164c0 104 82 102 168 102h94c104 0 174 62 174 152v72"/><path d="M-216-72v326M46 30v-214"/></g><g fill="none" stroke="#66d3aa" stroke-width="6" stroke-linecap="round" stroke-linejoin="round"><circle cx="-216" cy="-236" r="30"/><circle cx="-216" cy="-72" r="30"/><circle cx="-216" cy="254" r="30"/><circle cx="46" cy="-184" r="30"/><circle cx="46" cy="30" r="30"/><circle cx="220" cy="254" r="30"/></g><path d="M-186-72h76" fill="none" stroke="#efb35f" stroke-width="4" stroke-linecap="round" stroke-linejoin="round"/></g>
  <path d="M72 76v748" stroke="url(#card-line-6dad9e56a69e)" stroke-width="4"/>
  <g font-family="Inter, ui-sans-serif, system-ui, -apple-system, BlinkMacSystemFont, Segoe UI, sans-serif">
    <!-- One label, sized to stay legible at card width (~400px); the post
         title is shown next to the card, so the card does not repeat it. -->
    <text x="112" y="812" fill="#dbe7ee" font-size="44" font-weight="700" letter-spacing="6">TOOL GUIDE</text>
  </g>
</svg>