<svg xmlns="http://www.w3.org/2000/svg" width="1600" height="900" viewBox="0 0 1600 900" role="img" aria-labelledby="card-title card-desc">
  <title id="card-title">Mesh 自组网搭建指南</title>
  <desc id="card-desc">Dreamer Island FLIGHT SYSTEMS article card</desc>
  <defs>
    <linearGradient id="card-bg-bb45524dda4e" x1="0" y1="0" x2="1" y2="1"><stop stop-color="#07141f"/><stop offset=".62" stop-color="#0a313d"/><stop offset="1" stop-color="#142846"/></linearGradient>
    <radialGradient id="card-glow-bb45524dda4e"><stop stop-color="#62d7d1" stop-opacity=".28"/><stop offset="1" stop-color="#62d7d1" stop-opacity="0"/></radialGradient>
    <linearGradient id="card-line-bb45524dda4e" x1="0" y1="0" x2="1" y2="0"><stop stop-color="#62d7d1"/><stop offset="1" stop-color="#7fa9ff"/></linearGradient>
  </defs>
  <rect width="1600" height="900" fill="url(#card-bg-bb45524dda4e)"/>
  <path d="M0 0h690l250 900H0Z" fill="#020b12" opacity=".34"/>
  <path d="M720-90 1660 250v740L910 900Z" fill="#7fa9ff" opacity=".055"/>
  <circle cx="1118.1" cy="401.8" r="510" fill="url(#card-glow-bb45524dda4e)"/>
  <g opacity=".62"><path d="M-120 82.7 Q8 148.8 120 37 Q238 97.6 350 81.7 Q468 20.2 580 56.4 Q698 129.5 810 112.5 Q928 124.3 1040 104.6 Q1158 87.7 1270 38.4 Q1388 84.4 1500 114" fill="none" stroke="#62d7d1" stroke-width="2" opacity="0.1"/><path d="M-120 252.8 Q8 194.6 120 236.5 Q238 270 350 230.5 Q468 225.9 580 300.5 Q698 322.9 810 207.2 Q928 305.5 1040 247 Q1158 260.2 1270 233.6 Q1388 168.6 1500 234" fill="none" stroke="#7fa9ff" stroke-width="2" opacity="0.2"/><path d="M-120 380 Q8 411.2 120 360 Q238 375.6 350 346.9 Q468 421.7 580 404.4 Q698 427.8 810 377.2 Q928 437.8 1040 397 Q1158 385.8 1270 338.4 Q1388 311.8 1500 358.5" fill="none" stroke="#62d7d1" stroke-width="2" opacity="0.1"/><path d="M-120 526.6 Q8 470.7 120 545 Q238 449.4 350 507.6 Q468 578.9 580 506.3 Q698 478.4 810 547.1 Q928 536.3 1040 480.5 Q1158 461.8 1270 569.8 Q1388 486 1500 509.5" fill="none" stroke="#7fa9ff" stroke-width="2" opacity="0.1"/><path d="M-120 673.3 Q8 694.3 120 705 Q238 619.6 350 681.4 Q468 640.5 580 714 Q698 650.4 810 682 Q928 753.9 1040 712.7 Q1158 689.9 1270 641.8 Q1388 612.5 1500 721.6" fill="none" stroke="#62d7d1" stroke-width="2" opacity="0.1"/><path d="M-120 828.8 Q8 874.6 120 856.4 Q238 905.5 350 799.8 Q468 776.9 580 872.4 Q698 883 810 834 Q928 785.6 1040 836.5 Q1158 864.6 1270 860.5 Q1388 858.6 1500 841.6" fill="none" stroke="#7fa9ff" stroke-width="2" opacity="0.2"/></g>
  <g transform="translate(1154.5 419.5) rotate(-0.9) scale(1.1)"><g fill="none" stroke="#7fa9ff" stroke-width="4" stroke-linecap="round" stroke-linejoin="round" opacity=".48"><path d="M-238-122 34-194 256-72M-238-122-104 176 256-72M34-194-104 176" stroke-dasharray="10 16"/></g><g fill="none" stroke="#62d7d1" stroke-width="6" stroke-linecap="round" stroke-linejoin="round"><g transform="translate(-238 -122) scale(0.62)"><path d="M-64 0H64M0-52V52M-38-30 38 30M38-30-38 30"/><rect x="-30" y="-20" width="60" height="40"/><circle cx="-72" cy="-60" r="27"/><circle cx="72" cy="-60" r="27"/><circle cx="-72" cy="60" r="27"/><circle cx="72" cy="60" r="27"/></g><g transform="translate(34 -194) scale(0.58)"><path d="M-64 0H64M0-52V52M-38-30 38 30M38-30-38 30"/><rect x="-30" y="-20" width="60" height="40"/><circle cx="-72" cy="-60" r="27"/><circle cx="72" cy="-60" r="27"/><circle cx="-72" cy="60" r="27"/><circle cx="72" cy="60" r="27"/></g><g transform="translate(256 -72) scale(0.64)"><path d="M-64 0H64M0-52V52M-38-30 38 30M38-30-38 30"/><rect x="-30" y="-20" width="60" height="40"/><circle cx="-72" cy="-60" r="27"/><circle cx="72" cy="-60" r="27"/><circle cx="-72" cy="60" r="27"/><circle cx="72" cy="60" r="27"/></g><g transform="translate(-104 176) scale(0.68)"><path d="M-64 0H64M0-52V52M-38-30 38 30M38-30-38 30"/><rect x="-30" y="-20" width="60" height="40"/><circle cx="-72" cy="-60" r="27"/><circle cx="72" cy="-60" r="27"/><circle cx="-72" cy="60" r="27"/><circle cx="72" cy="60" r="27"/></g></g><g fill="#efb35f"><circle cx="-238" cy="-122" r="8"/><circle cx="34" cy="-194" r="8"/><circle cx="256" cy="-72" r="8"/><circle cx="-104" cy="176" r="8"/></g></g>
  <path d="M72 76v748" stroke="url(#card-line-bb45524dda4e)" stroke-width="4"/>
  <g font-family="Inter, ui-sans-serif, system-ui, -apple-system, BlinkMacSystemFont, Segoe UI, sans-serif">
    <text x="112" y="116" fill="#62d7d1" font-size="18" font-weight="700" letter-spacing="4">FLIGHT SYSTEMS</text>
    <text x="112" y="472" fill="#f4f8fb" font-size="58" font-weight="760" letter-spacing="2">SWARM</text>
    <text x="112" y="542" fill="#7fa9ff" font-size="38" font-weight="650" letter-spacing="4">MESH</text>
    <text x="112" y="782" fill="#dbe7ee" font-size="17" font-weight="650" letter-spacing="5">DREAMER ISLAND</text>
    <text x="112" y="822" fill="#efb35f" font-size="14" font-weight="700" letter-spacing="4">NETWORK GUIDE</text>
  </g>
</svg>