<svg xmlns="http://www.w3.org/2000/svg" width="1600" height="900" viewBox="0 0 1600 900" role="img" aria-labelledby="cover-title cover-desc">
  <title id="cover-title">概率基础：从随机变量到无人机路径规划中的随机采样</title>
  <desc id="cover-desc">Dreamer Island PLANNING THEORY article cover</desc>
  <defs>
    <linearGradient id="bg-1415ef50ac7b" x1="0" y1="0" x2="1" y2="1"><stop stop-color="#0b1224"/><stop offset=".54" stop-color="#15294a"/><stop offset="1" stop-color="#1f3a4f"/></linearGradient>
    <radialGradient id="glow-1415ef50ac7b"><stop stop-color="#8fc1ff" stop-opacity=".25"/><stop offset="1" stop-color="#8fc1ff" stop-opacity="0"/></radialGradient>
    <pattern id="grid-1415ef50ac7b" width="66" height="66" patternUnits="userSpaceOnUse"><path d="M66 0H0V66" fill="none" stroke="#6fd6c2" stroke-width="1" opacity=".11"/></pattern>
  </defs>
  <rect width="1600" height="900" fill="url(#bg-1415ef50ac7b)"/>
  <path d="M930-80 1660 280v700L650 916Z" fill="#6fd6c2" opacity=".045"/>
  <circle cx="1100.9" cy="385.9" r="520" fill="url(#glow-1415ef50ac7b)"/>
  <rect width="1600" height="900" fill="url(#grid-1415ef50ac7b)"/>
  <g><path d="M-120 108.2 Q8 58.8 120 74.3 Q238 100.9 350 112 Q468 141.5 580 155.2 Q698 34.5 810 135.4 Q928 142.9 1040 83.3 Q1158 102.5 1270 76.7 Q1388 52.6 1500 90.7" fill="none" stroke="#8fc1ff" stroke-width="2" opacity="0.1"/><path d="M-120 240 Q8 297.9 120 228.7 Q238 316.8 350 283.1 Q468 272.6 580 256.6 Q698 189.2 810 232.4 Q928 257 1040 247.7 Q1158 232.2 1270 276.4 Q1388 213.6 1500 197.3" fill="none" stroke="#6fd6c2" stroke-width="2" opacity="0.1"/><path d="M-120 399.5 Q8 418.4 120 379.9 Q238 436.3 350 358.5 Q468 426.5 580 374 Q698 386 810 382.9 Q928 460.8 1040 365.4 Q1158 466.1 1270 355.5 Q1388 432.4 1500 392.3" fill="none" stroke="#8fc1ff" stroke-width="2" opacity="0.1"/><path d="M-120 533.8 Q8 524.4 120 490.6 Q238 524 350 517 Q468 485.8 580 569.7 Q698 571.4 810 552.2 Q928 473.6 1040 513.1 Q1158 588 1270 499.9 Q1388 575.3 1500 575.8" fill="none" stroke="#6fd6c2" stroke-width="2" opacity="0.1"/><path d="M-120 670.4 Q8 680.5 120 668.2 Q238 755.3 350 688.9 Q468 644.2 580 714.1 Q698 683.6 810 697.3 Q928 732 1040 630.2 Q1158 638.7 1270 701.9 Q1388 690.4 1500 701.9" fill="none" stroke="#8fc1ff" stroke-width="2" opacity="0.1"/><path d="M-120 827.7 Q8 814.4 120 811.4 Q238 782.3 350 792.5 Q468 868.1 580 852.4 Q698 749.5 810 820.5 Q928 849.4 1040 782.1 Q1158 893.4 1270 793.1 Q1388 865.5 1500 811.6" fill="none" stroke="#6fd6c2" stroke-width="2" opacity="0.1"/></g>
  <g><circle cx="1199.6" cy="770.3" r="5" fill="#8fc1ff" opacity="0.2"/><circle cx="690.1" cy="666.7" r="3.3" fill="#8fc1ff" opacity="0.4"/><circle cx="393.6" cy="699.7" r="3.2" fill="#8fc1ff" opacity="0.3"/><circle cx="792.8" cy="663" r="3.8" fill="#f0b86a" opacity="0.4"/><circle cx="285.9" cy="113.3" r="3.9" fill="#8fc1ff" opacity="0.4"/><circle cx="1363.8" cy="246.3" r="4.4" fill="#8fc1ff" opacity="0.3"/><circle cx="216.3" cy="805.2" r="3.9" fill="#f0b86a" opacity="0.2"/><circle cx="932.4" cy="333.9" r="4.4" fill="#f0b86a" opacity="0.4"/><circle cx="254.2" cy="323.1" r="4" fill="#f0b86a" opacity="0.2"/><circle cx="1291.5" cy="140.6" r="4.1" fill="#8fc1ff" opacity="0.3"/><circle cx="1324.6" cy="217.9" r="3.4" fill="#8fc1ff" opacity="0.2"/><circle cx="1265.8" cy="333.8" r="5.2" fill="#8fc1ff" opacity="0.2"/><circle cx="968.1" cy="319.2" r="2.6" fill="#8fc1ff" opacity="0.3"/><circle cx="327.4" cy="189.5" r="3.1" fill="#8fc1ff" opacity="0.3"/><circle cx="181.9" cy="415.1" r="2.1" fill="#8fc1ff" opacity="0.3"/><circle cx="708.1" cy="240.7" r="5.7" fill="#8fc1ff" opacity="0.2"/><circle cx="1052.1" cy="579.5" r="3.5" fill="#8fc1ff" opacity="0.2"/><circle cx="880.9" cy="347.4" r="3.7" fill="#f0b86a" opacity="0.2"/></g>
  <g transform="translate(1053.7 448.1) rotate(0.6) scale(0.9)"><g fill="none" stroke="#6fd6c2" stroke-width="4" stroke-linecap="round" stroke-linejoin="round" opacity=".48"><path d="M-238-122 34-194 256-72M-238-122-104 176 256-72M34-194-104 176" stroke-dasharray="10 16"/></g><g fill="none" stroke="#8fc1ff" stroke-width="6" stroke-linecap="round" stroke-linejoin="round"><g transform="translate(-238 -122) scale(0.62)"><path d="M-64 0H64M0-52V52M-38-30 38 30M38-30-38 30"/><rect x="-30" y="-20" width="60" height="40"/><circle cx="-72" cy="-60" r="27"/><circle cx="72" cy="-60" r="27"/><circle cx="-72" cy="60" r="27"/><circle cx="72" cy="60" r="27"/></g><g transform="translate(34 -194) scale(0.58)"><path d="M-64 0H64M0-52V52M-38-30 38 30M38-30-38 30"/><rect x="-30" y="-20" width="60" height="40"/><circle cx="-72" cy="-60" r="27"/><circle cx="72" cy="-60" r="27"/><circle cx="-72" cy="60" r="27"/><circle cx="72" cy="60" r="27"/></g><g transform="translate(256 -72) scale(0.64)"><path d="M-64 0H64M0-52V52M-38-30 38 30M38-30-38 30"/><rect x="-30" y="-20" width="60" height="40"/><circle cx="-72" cy="-60" r="27"/><circle cx="72" cy="-60" r="27"/><circle cx="-72" cy="60" r="27"/><circle cx="72" cy="60" r="27"/></g><g transform="translate(-104 176) scale(0.68)"><path d="M-64 0H64M0-52V52M-38-30 38 30M38-30-38 30"/><rect x="-30" y="-20" width="60" height="40"/><circle cx="-72" cy="-60" r="27"/><circle cx="72" cy="-60" r="27"/><circle cx="-72" cy="60" r="27"/><circle cx="72" cy="60" r="27"/></g></g><g fill="#f0b86a"><circle cx="-238" cy="-122" r="8"/><circle cx="34" cy="-194" r="8"/><circle cx="256" cy="-72" r="8"/><circle cx="-104" cy="176" r="8"/></g></g>
  <g font-family="Inter, ui-sans-serif, system-ui, -apple-system, BlinkMacSystemFont, Segoe UI, sans-serif">
    <text x="92" y="104" fill="#f4f8fb" font-size="24" font-weight="700" letter-spacing="6">DREAMER ISLAND</text>
    <path d="M92 136h190" stroke="#8fc1ff" stroke-width="5"/>
    <text x="92" y="176" fill="#8fc1ff" font-size="17" font-weight="650" letter-spacing="4">PLANNING THEORY</text>
    <text x="92" y="782" fill="#dbe7ee" font-size="17" font-weight="600" letter-spacing="3" opacity=".88">PROBABILITY / SAMPLING</text>
    <text x="92" y="826" fill="#f0b86a" font-size="15" font-weight="700" letter-spacing="4">MATH FOUNDATION / 1415EF50AC7B</text>
  </g>
  <path d="M92 742h260" stroke="#f4f8fb" stroke-width="1" opacity=".24"/>
  <path d="M1492 84v142M1421 155h142" stroke="#8fc1ff" stroke-width="2" opacity=".4"/>
</svg>