<svg xmlns="http://www.w3.org/2000/svg" width="1600" height="900" viewBox="0 0 1600 900" role="img" aria-labelledby="cover-title cover-desc">
  <title id="cover-title">NavRL 阅读笔记：动态环境下的无人机强化学习局部导航到底做了什么</title>
  <desc id="cover-desc">Dreamer Island RESEARCH NOTES article cover</desc>
  <defs>
    <linearGradient id="bg-1e5cceb64425" x1="0" y1="0" x2="1" y2="1"><stop stop-color="#111522"/><stop offset=".54" stop-color="#29213e"/><stop offset="1" stop-color="#163542"/></linearGradient>
    <radialGradient id="glow-1e5cceb64425"><stop stop-color="#c9a1f4" stop-opacity=".25"/><stop offset="1" stop-color="#c9a1f4" stop-opacity="0"/></radialGradient>
    <pattern id="grid-1e5cceb64425" width="75" height="75" patternUnits="userSpaceOnUse"><path d="M75 0H0V75" fill="none" stroke="#69d2cb" stroke-width="1" opacity=".11"/></pattern>
  </defs>
  <rect width="1600" height="900" fill="url(#bg-1e5cceb64425)"/>
  <path d="M930-80 1660 280v700L650 916Z" fill="#69d2cb" opacity=".045"/>
  <circle cx="935.5" cy="444.4" r="520" fill="url(#glow-1e5cceb64425)"/>
  <rect width="1600" height="900" fill="url(#grid-1e5cceb64425)"/>
  <g><path d="M-120 96.1 Q8 170.6 120 79.4 Q238 145.5 350 60.8 Q468 109.6 580 51.6 Q698 148.2 810 79.3 Q928 150.2 1040 135.3 Q1158 93.1 1270 51.5 Q1388 23.8 1500 77.6" fill="none" stroke="#c9a1f4" stroke-width="2" opacity="0.1"/><path d="M-120 244.2 Q8 164.6 120 293.9 Q238 248.5 350 212.8 Q468 210 580 236.2 Q698 243.5 810 225.5 Q928 226.4 1040 279.3 Q1158 207.8 1270 270 Q1388 245.4 1500 284.5" fill="none" stroke="#69d2cb" stroke-width="2" opacity="0.2"/><path d="M-120 371.5 Q8 444.9 120 411.1 Q238 409.4 350 368.4 Q468 302.8 580 346.4 Q698 373.4 810 362.7 Q928 335.9 1040 375.4 Q1158 451.7 1270 366.7 Q1388 429.2 1500 324.6" fill="none" stroke="#c9a1f4" stroke-width="2" opacity="0.2"/><path d="M-120 531.7 Q8 584.7 120 567.2 Q238 573.3 350 522 Q468 495.8 580 568.7 Q698 575.8 810 530.9 Q928 471.8 1040 551.9 Q1158 548.8 1270 499.8 Q1388 500.8 1500 566.2" fill="none" stroke="#69d2cb" stroke-width="2" opacity="0.1"/><path d="M-120 681.8 Q8 636.5 120 687.1 Q238 670.6 350 724.3 Q468 705.8 580 701.4 Q698 664.8 810 682.8 Q928 642.5 1040 667.4 Q1158 706.9 1270 705.3 Q1388 647.7 1500 716.4" fill="none" stroke="#c9a1f4" stroke-width="2" opacity="0.1"/><path d="M-120 822.4 Q8 856.1 120 812.4 Q238 798.3 350 797.8 Q468 869.7 580 778.1 Q698 820.9 810 862.7 Q928 823.7 1040 821.6 Q1158 877.7 1270 825.5 Q1388 907.1 1500 814.8" fill="none" stroke="#69d2cb" stroke-width="2" opacity="0.1"/></g>
  <g><circle cx="391.2" cy="357.5" r="3.8" fill="#c9a1f4" opacity="0.2"/><circle cx="376" cy="610.8" r="2.2" fill="#c9a1f4" opacity="0.3"/><circle cx="1332.1" cy="598.5" r="3.7" fill="#c9a1f4" opacity="0.3"/><circle cx="802.9" cy="163.6" r="3.6" fill="#efb46b" opacity="0.2"/><circle cx="1035" cy="109.5" r="2" fill="#c9a1f4" opacity="0.2"/><circle cx="439.2" cy="398" r="5.3" fill="#efb46b" opacity="0.3"/><circle cx="693.4" cy="651.9" r="5.1" fill="#c9a1f4" opacity="0.4"/><circle cx="284.9" cy="778.3" r="3.1" fill="#efb46b" opacity="0.2"/><circle cx="1297.2" cy="624" r="5.5" fill="#efb46b" opacity="0.2"/><circle cx="878.1" cy="814.4" r="4.8" fill="#efb46b" opacity="0.3"/><circle cx="172.2" cy="267.3" r="2.7" fill="#c9a1f4" opacity="0.3"/><circle cx="357.8" cy="748.8" r="4.7" fill="#c9a1f4" opacity="0.2"/><circle cx="194.2" cy="815.8" r="4.8" fill="#c9a1f4" opacity="0.4"/><circle cx="401.3" cy="127.8" r="3" fill="#c9a1f4" opacity="0.4"/><circle cx="1138" cy="119.9" r="2.1" fill="#efb46b" opacity="0.2"/><circle cx="732.8" cy="237.1" r="5.5" fill="#efb46b" opacity="0.4"/><circle cx="373.6" cy="762.3" r="2.9" fill="#c9a1f4" opacity="0.4"/><circle cx="896.3" cy="691.9" r="5.8" fill="#efb46b" opacity="0.2"/></g>
  <g transform="translate(1039.4 471.3) rotate(-2) scale(1)"><g fill="none" stroke="#69d2cb" stroke-width="4" stroke-linecap="round" stroke-linejoin="round" opacity=".28"><path d="M-270 -180 0 -210"/><path d="M-270 -180 0 -105"/><path d="M-270 -180 0 0"/><path d="M-270 -180 0 105"/><path d="M-270 -180 0 210"/><path d="M-270 -60 0 -210"/><path d="M-270 -60 0 -105"/><path d="M-270 -60 0 0"/><path d="M-270 -60 0 105"/><path d="M-270 -60 0 210"/><path d="M-270 60 0 -210"/><path d="M-270 60 0 -105"/><path d="M-270 60 0 0"/><path d="M-270 60 0 105"/><path d="M-270 60 0 210"/><path d="M-270 180 0 -210"/><path d="M-270 180 0 -105"/><path d="M-270 180 0 0"/><path d="M-270 180 0 105"/><path d="M-270 180 0 210"/><path d="M0 -210 270 -120"/><path d="M0 -210 270 0"/><path d="M0 -210 270 120"/><path d="M0 -105 270 -120"/><path d="M0 -105 270 0"/><path d="M0 -105 270 120"/><path d="M0 0 270 -120"/><path d="M0 0 270 0"/><path d="M0 0 270 120"/><path d="M0 105 270 -120"/><path d="M0 105 270 0"/><path d="M0 105 270 120"/><path d="M0 210 270 -120"/><path d="M0 210 270 0"/><path d="M0 210 270 120"/></g><g fill="none" stroke="#c9a1f4" stroke-width="6" stroke-linecap="round" stroke-linejoin="round"><circle cx="-270" cy="-180" r="18"/><circle cx="-270" cy="-60" r="18"/><circle cx="-270" cy="60" r="18"/><circle cx="-270" cy="180" r="18"/><circle cy="-210" r="18"/><circle cy="-105" r="18"/><circle cy="0" r="18"/><circle cy="105" r="18"/><circle cy="210" r="18"/><circle cx="270" cy="-120" r="18"/><circle cx="270" cy="0" r="18"/><circle cx="270" cy="120" r="18"/></g><path d="M-322 238C-178 118-92 170 8 54S188-130 324-202" fill="none" stroke="#efb46b" stroke-width="4" stroke-linecap="round" stroke-linejoin="round"/></g>
  <g font-family="Inter, ui-sans-serif, system-ui, -apple-system, BlinkMacSystemFont, Segoe UI, sans-serif">
    <text x="92" y="104" fill="#f4f8fb" font-size="24" font-weight="700" letter-spacing="6">DREAMER ISLAND</text>
    <path d="M92 136h190" stroke="#c9a1f4" stroke-width="5"/>
    <text x="92" y="176" fill="#c9a1f4" font-size="17" font-weight="650" letter-spacing="4">RESEARCH NOTES</text>
    <text x="92" y="782" fill="#dbe7ee" font-size="17" font-weight="600" letter-spacing="3" opacity=".88">RL / LOCAL NAV</text>
    <text x="92" y="826" fill="#efb46b" font-size="15" font-weight="700" letter-spacing="4">RESEARCH NOTE / 1E5CCEB64425</text>
  </g>
  <path d="M92 742h260" stroke="#f4f8fb" stroke-width="1" opacity=".24"/>
  <path d="M1492 84v142M1421 155h142" stroke="#c9a1f4" stroke-width="2" opacity=".4"/>
</svg>