<svg xmlns="http://www.w3.org/2000/svg" width="1600" height="900" viewBox="0 0 1600 900" role="img" aria-labelledby="cover-title cover-desc">
  <title id="cover-title">EGO-Planner ROS2 + MAVROS + PX4 完整教程：从仿真规划到 Offboard 桥接</title>
  <desc id="cover-desc">Dreamer Island FLIGHT SYSTEMS article cover</desc>
  <defs>
    <linearGradient id="bg-368b77be53fd" x1="0" y1="0" x2="1" y2="1"><stop stop-color="#07141f"/><stop offset=".54" stop-color="#0a313d"/><stop offset="1" stop-color="#142846"/></linearGradient>
    <radialGradient id="glow-368b77be53fd"><stop stop-color="#62d7d1" stop-opacity=".25"/><stop offset="1" stop-color="#62d7d1" stop-opacity="0"/></radialGradient>
    <pattern id="grid-368b77be53fd" width="75" height="75" patternUnits="userSpaceOnUse"><path d="M75 0H0V75" fill="none" stroke="#7fa9ff" stroke-width="1" opacity=".11"/></pattern>
  </defs>
  <rect width="1600" height="900" fill="url(#bg-368b77be53fd)"/>
  <path d="M930-80 1660 280v700L650 916Z" fill="#7fa9ff" opacity=".045"/>
  <circle cx="1147.3" cy="384.1" r="520" fill="url(#glow-368b77be53fd)"/>
  <rect width="1600" height="900" fill="url(#grid-368b77be53fd)"/>
  <g><path d="M-120 90.5 Q8 109.7 120 135.2 Q238 37.9 350 127 Q468 106.3 580 121.2 Q698 120.6 810 64.2 Q928 158.6 1040 124.4 Q1158 93.1 1270 51.6 Q1388 77.7 1500 115" fill="none" stroke="#62d7d1" stroke-width="2" opacity="0.1"/><path d="M-120 227.3 Q8 172.5 120 198.8 Q238 302.9 350 258.5 Q468 240.5 580 255.6 Q698 218 810 229.3 Q928 238.4 1040 239.6 Q1158 169.7 1270 198.9 Q1388 208.6 1500 178.9" fill="none" stroke="#7fa9ff" stroke-width="2" opacity="0.2"/><path d="M-120 389.6 Q8 402.3 120 436.2 Q238 437.7 350 382.1 Q468 402.3 580 379.1 Q698 425.2 810 367.9 Q928 405.3 1040 429.2 Q1158 346.4 1270 391.3 Q1388 309.5 1500 351.9" fill="none" stroke="#62d7d1" stroke-width="2" opacity="0.2"/><path d="M-120 533.5 Q8 452.9 120 514.1 Q238 497.6 350 485.2 Q468 588 580 576.8 Q698 580.9 810 578.1 Q928 488.7 1040 523.1 Q1158 538.6 1270 553.5 Q1388 552.4 1500 495.9" fill="none" stroke="#7fa9ff" stroke-width="2" opacity="0.1"/><path d="M-120 671.2 Q8 609.3 120 715.3 Q238 698.4 350 659.8 Q468 719.9 580 660.1 Q698 649.7 810 708.1 Q928 733.6 1040 676.4 Q1158 662.7 1270 685.2 Q1388 700.8 1500 655.1" fill="none" stroke="#62d7d1" stroke-width="2" opacity="0.1"/><path d="M-120 815.3 Q8 755.1 120 814.1 Q238 776.3 350 767.2 Q468 842.7 580 815.2 Q698 833.4 810 799.7 Q928 818.4 1040 813.1 Q1158 790.3 1270 836.2 Q1388 760.6 1500 804.4" fill="none" stroke="#7fa9ff" stroke-width="2" opacity="0.1"/></g>
  <g><circle cx="310.9" cy="693.5" r="5.5" fill="#efb35f" opacity="0.4"/><circle cx="501.1" cy="627.3" r="5.9" fill="#62d7d1" opacity="0.2"/><circle cx="722.4" cy="785.3" r="3.8" fill="#62d7d1" opacity="0.4"/><circle cx="474.9" cy="570.3" r="5.6" fill="#62d7d1" opacity="0.3"/><circle cx="192" cy="133" r="3.2" fill="#62d7d1" opacity="0.3"/><circle cx="91.3" cy="136" r="3.3" fill="#62d7d1" opacity="0.4"/><circle cx="1419.2" cy="279.2" r="3.7" fill="#62d7d1" opacity="0.3"/><circle cx="369.8" cy="326" r="2.6" fill="#62d7d1" opacity="0.3"/><circle cx="682.5" cy="811.8" r="4.2" fill="#62d7d1" opacity="0.3"/><circle cx="493" cy="113.6" r="3.4" fill="#efb35f" opacity="0.3"/><circle cx="288.3" cy="417.9" r="4.6" fill="#62d7d1" opacity="0.4"/><circle cx="100.8" cy="137.3" r="3.4" fill="#efb35f" opacity="0.2"/><circle cx="874.3" cy="340.5" r="4" fill="#62d7d1" opacity="0.2"/><circle cx="1486.8" cy="761.3" r="3.8" fill="#62d7d1" opacity="0.2"/><circle cx="657" cy="654.4" r="5.5" fill="#62d7d1" opacity="0.4"/><circle cx="190.7" cy="226" r="4.8" fill="#62d7d1" opacity="0.4"/><circle cx="625" cy="587.9" r="3.4" fill="#62d7d1" opacity="0.3"/><circle cx="551.7" cy="665.7" r="3.9" fill="#62d7d1" opacity="0.4"/></g>
  <g transform="translate(967.6 463.8) rotate(-1.8) scale(0.9)"><g fill="none" stroke="#7fa9ff" stroke-width="4" stroke-linecap="round" stroke-linejoin="round" opacity=".54"><rect x="-358" y="-118" width="216" height="236"/><path d="M-310-54h120M-310 0h84M-310 54h108"/><path d="M-142 0C-24-184 94 176 266-26" stroke-dasharray="12 18"/></g><g fill="none" stroke="#62d7d1" stroke-width="6" stroke-linecap="round" stroke-linejoin="round" transform="translate(252 -26) scale(.72)"><path d="M-96 0H96M0-78V78M-56-42 56 42M56-42-56 42"/><rect x="-48" y="-30" width="96" height="60"/><circle cx="-108" cy="-94" r="42"/><circle cx="108" cy="-94" r="42"/><circle cx="-108" cy="94" r="42"/><circle cx="108" cy="94" r="42"/></g><path d="M-118-26h112m-26-28 40 28-40 28" fill="none" stroke="#efb35f" stroke-width="4" stroke-linecap="round" stroke-linejoin="round"/></g>
  <g font-family="Inter, ui-sans-serif, system-ui, -apple-system, BlinkMacSystemFont, Segoe UI, sans-serif">
    <text x="92" y="104" fill="#f4f8fb" font-size="24" font-weight="700" letter-spacing="6">DREAMER ISLAND</text>
    <path d="M92 136h190" stroke="#62d7d1" stroke-width="5"/>
    <text x="92" y="176" fill="#62d7d1" font-size="17" font-weight="650" letter-spacing="4">FLIGHT SYSTEMS</text>
    <text x="92" y="782" fill="#dbe7ee" font-size="17" font-weight="600" letter-spacing="3" opacity=".88">PLANNING / OFFBOARD</text>
    <text x="92" y="826" fill="#efb35f" font-size="15" font-weight="700" letter-spacing="4">FLIGHT GUIDE / 368B77BE53FD</text>
  </g>
  <path d="M92 742h260" stroke="#f4f8fb" stroke-width="1" opacity=".24"/>
  <path d="M1492 84v142M1421 155h142" stroke="#62d7d1" stroke-width="2" opacity=".4"/>
</svg>