<svg xmlns="http://www.w3.org/2000/svg" width="1600" height="900" viewBox="0 0 1600 900" role="img" aria-labelledby="cover-title cover-desc">
  <title id="cover-title">Kinodynamic A*：一步一步把速度放进搜索</title>
  <desc id="cover-desc">Dreamer Island PLANNING THEORY article cover</desc>
  <defs>
    <linearGradient id="bg-a2734cf49e9c" x1="0" y1="0" x2="1" y2="1"><stop stop-color="#0b1224"/><stop offset=".54" stop-color="#15294a"/><stop offset="1" stop-color="#1f3a4f"/></linearGradient>
    <radialGradient id="glow-a2734cf49e9c"><stop stop-color="#8fc1ff" stop-opacity=".25"/><stop offset="1" stop-color="#8fc1ff" stop-opacity="0"/></radialGradient>
    <pattern id="grid-a2734cf49e9c" width="73" height="73" patternUnits="userSpaceOnUse"><path d="M73 0H0V73" fill="none" stroke="#6fd6c2" stroke-width="1" opacity=".11"/></pattern>
  </defs>
  <rect width="1600" height="900" fill="url(#bg-a2734cf49e9c)"/>
  <path d="M930-80 1660 280v700L650 916Z" fill="#6fd6c2" opacity=".045"/>
  <circle cx="1166.9" cy="446.1" r="520" fill="url(#glow-a2734cf49e9c)"/>
  <rect width="1600" height="900" fill="url(#grid-a2734cf49e9c)"/>
  <g><path d="M-120 107.3 Q8 100.4 120 128.2 Q238 71 350 93.5 Q468 156.3 580 86.5 Q698 168.6 810 86 Q928 27.5 1040 113.5 Q1158 191.4 1270 66.5 Q1388 116.8 1500 100.7" fill="none" stroke="#8fc1ff" stroke-width="2" opacity="0.1"/><path d="M-120 229.3 Q8 149.5 120 244.7 Q238 196 350 220 Q468 278.2 580 221.7 Q698 185.9 810 259.3 Q928 285.7 1040 263 Q1158 198.8 1270 190.5 Q1388 217.4 1500 197" fill="none" stroke="#6fd6c2" stroke-width="2" opacity="0.2"/><path d="M-120 397.6 Q8 454.6 120 366.5 Q238 443.2 350 362.8 Q468 464 580 348.8 Q698 399.7 810 355.1 Q928 371.7 1040 415.2 Q1158 424 1270 393.5 Q1388 379.7 1500 408.6" fill="none" stroke="#8fc1ff" stroke-width="2" opacity="0.1"/><path d="M-120 539.8 Q8 498.7 120 526.2 Q238 465.1 350 555.8 Q468 622 580 514.2 Q698 594.9 810 510.1 Q928 504.9 1040 542.2 Q1158 619.8 1270 564.6 Q1388 587.3 1500 563.3" fill="none" stroke="#6fd6c2" stroke-width="2" opacity="0.1"/><path d="M-120 675.5 Q8 709.7 120 651.7 Q238 664.8 350 673.2 Q468 654.2 580 663.6 Q698 720.4 810 645.4 Q928 622.4 1040 659.5 Q1158 713.4 1270 680.6 Q1388 676.2 1500 627.8" fill="none" stroke="#8fc1ff" stroke-width="2" opacity="0.1"/><path d="M-120 828.1 Q8 839.4 120 815.8 Q238 906.8 350 801.9 Q468 762.7 580 802.6 Q698 789.2 810 814.7 Q928 901.8 1040 815.6 Q1158 834.8 1270 861 Q1388 779.4 1500 854.8" fill="none" stroke="#6fd6c2" stroke-width="2" opacity="0.1"/></g>
  <g><circle cx="1079.3" cy="640.8" r="5.3" fill="#8fc1ff" opacity="0.3"/><circle cx="490" cy="210.7" r="2.7" fill="#8fc1ff" opacity="0.3"/><circle cx="98.9" cy="544.6" r="5.8" fill="#8fc1ff" opacity="0.2"/><circle cx="1105.8" cy="355.6" r="3.7" fill="#8fc1ff" opacity="0.3"/><circle cx="265.7" cy="372.5" r="3.1" fill="#f0b86a" opacity="0.3"/><circle cx="385.8" cy="213.7" r="5.8" fill="#8fc1ff" opacity="0.3"/><circle cx="525.2" cy="386.2" r="4.2" fill="#8fc1ff" opacity="0.4"/><circle cx="538.3" cy="417.1" r="3.3" fill="#8fc1ff" opacity="0.2"/><circle cx="695.4" cy="288" r="4.4" fill="#8fc1ff" opacity="0.2"/><circle cx="628.1" cy="560.5" r="2.4" fill="#8fc1ff" opacity="0.2"/><circle cx="512.3" cy="699.2" r="4.6" fill="#8fc1ff" opacity="0.4"/><circle cx="369.1" cy="573.6" r="4.4" fill="#8fc1ff" opacity="0.4"/><circle cx="259" cy="313" r="5.4" fill="#8fc1ff" opacity="0.3"/><circle cx="621.8" cy="754" r="4.3" fill="#8fc1ff" opacity="0.4"/><circle cx="324.5" cy="762.3" r="5.9" fill="#8fc1ff" opacity="0.3"/><circle cx="430.2" cy="96.3" r="5.8" fill="#8fc1ff" opacity="0.2"/><circle cx="809" cy="476" r="2.2" fill="#8fc1ff" opacity="0.4"/><circle cx="1274.8" cy="502.7" r="2.2" fill="#f0b86a" opacity="0.2"/></g>
  <g transform="translate(1067.6 427.9) rotate(-1.9) scale(0.9)"><g fill="none" stroke="#6fd6c2" stroke-width="4" stroke-linecap="round" stroke-linejoin="round" opacity=".62"><circle r="270" stroke-dasharray="10 20"/><path d="M-360 188C-210 10-124 126-18-28S176-210 356-128"/></g><g fill="none" stroke="#8fc1ff" stroke-width="6" stroke-linecap="round" stroke-linejoin="round"><path d="M-112 0H112M0-94V94M-62-52 62 52M62-52-62 52"/><rect x="-54" y="-34" width="108" height="68" rx="14"/><circle cx="-132" cy="-116" r="54"/><circle cx="132" cy="-116" r="54"/><circle cx="-132" cy="116" r="54"/><circle cx="132" cy="116" r="54"/></g><path d="M-360 188C-210 10-124 126-18-28S176-210 356-128" fill="none" stroke="#f0b86a" stroke-width="4" stroke-linecap="round" stroke-linejoin="round" stroke-dasharray="8 18"/></g>
  <g font-family="Inter, ui-sans-serif, system-ui, -apple-system, BlinkMacSystemFont, Segoe UI, sans-serif">
    <text x="92" y="104" fill="#f4f8fb" font-size="24" font-weight="700" letter-spacing="6">DREAMER ISLAND</text>
    <path d="M92 136h190" stroke="#8fc1ff" stroke-width="5"/>
    <text x="92" y="176" fill="#8fc1ff" font-size="17" font-weight="650" letter-spacing="4">PLANNING THEORY</text>
    <text x="92" y="782" fill="#dbe7ee" font-size="17" font-weight="600" letter-spacing="3" opacity=".88">KINODYNAMIC A* / SEARCH</text>
    <text x="92" y="826" fill="#f0b86a" font-size="15" font-weight="700" letter-spacing="4">SEARCH AND SAMPLING / A2734CF49E9C</text>
  </g>
  <path d="M92 742h260" stroke="#f4f8fb" stroke-width="1" opacity=".24"/>
  <path d="M1492 84v142M1421 155h142" stroke="#8fc1ff" stroke-width="2" opacity=".4"/>
</svg>