<svg xmlns="http://www.w3.org/2000/svg" width="1600" height="900" viewBox="0 0 1600 900" role="img" aria-labelledby="cover-title cover-desc">
  <title id="cover-title">YOPO-ROS2 运行指南</title>
  <desc id="cover-desc">Dreamer Island FLIGHT SYSTEMS article cover</desc>
  <defs>
    <linearGradient id="bg-c1a98db4ae25" x1="0" y1="0" x2="1" y2="1"><stop stop-color="#07141f"/><stop offset=".54" stop-color="#0a313d"/><stop offset="1" stop-color="#142846"/></linearGradient>
    <radialGradient id="glow-c1a98db4ae25"><stop stop-color="#62d7d1" stop-opacity=".25"/><stop offset="1" stop-color="#62d7d1" stop-opacity="0"/></radialGradient>
    <pattern id="grid-c1a98db4ae25" width="71" height="71" patternUnits="userSpaceOnUse"><path d="M71 0H0V71" fill="none" stroke="#7fa9ff" stroke-width="1" opacity=".11"/></pattern>
  </defs>
  <rect width="1600" height="900" fill="url(#bg-c1a98db4ae25)"/>
  <path d="M930-80 1660 280v700L650 916Z" fill="#7fa9ff" opacity=".045"/>
  <circle cx="1166" cy="468.1" r="520" fill="url(#glow-c1a98db4ae25)"/>
  <rect width="1600" height="900" fill="url(#grid-c1a98db4ae25)"/>
  <g><path d="M-120 98.7 Q8 24.8 120 147.3 Q238 17.1 350 85.9 Q468 132.3 580 81.3 Q698 106.7 810 146 Q928 128.9 1040 110.8 Q1158 52.6 1270 64.6 Q1388 123.8 1500 68.2" fill="none" stroke="#62d7d1" stroke-width="2" opacity="0.1"/><path d="M-120 246.4 Q8 247.2 120 241 Q238 288.3 350 255.7 Q468 297.7 580 291.7 Q698 202.8 810 207.9 Q928 309.8 1040 210.9 Q1158 314.4 1270 295.5 Q1388 250.3 1500 201.9" fill="none" stroke="#7fa9ff" stroke-width="2" opacity="0.1"/><path d="M-120 375.3 Q8 354.2 120 330.8 Q238 344.8 350 422.4 Q468 435 580 372.1 Q698 426.4 810 393.2 Q928 454.2 1040 333.1 Q1158 348.5 1270 359.4 Q1388 381.4 1500 400.9" fill="none" stroke="#62d7d1" stroke-width="2" opacity="0.1"/><path d="M-120 544.4 Q8 543.4 120 511.3 Q238 521.4 350 570.1 Q468 609.5 580 572.6 Q698 626.4 810 564.9 Q928 540.8 1040 588.4 Q1158 593.8 1270 568.9 Q1388 553.7 1500 533.9" fill="none" stroke="#7fa9ff" stroke-width="2" opacity="0.1"/><path d="M-120 672.3 Q8 670.4 120 650.3 Q238 746.2 350 688.3 Q468 620.4 580 636.7 Q698 688.8 810 676.3 Q928 733.6 1040 659.9 Q1158 720.8 1270 660.1 Q1388 637.6 1500 670.8" fill="none" stroke="#62d7d1" stroke-width="2" opacity="0.1"/><path d="M-120 813 Q8 870.7 120 763.8 Q238 756.6 350 827 Q468 748.6 580 825.9 Q698 739.8 810 860.6 Q928 758.4 1040 801.3 Q1158 736.5 1270 841.7 Q1388 835.4 1500 831.3" fill="none" stroke="#7fa9ff" stroke-width="2" opacity="0.1"/></g>
  <g><circle cx="638" cy="405" r="2.8" fill="#62d7d1" opacity="0.4"/><circle cx="998.1" cy="170.9" r="3.6" fill="#62d7d1" opacity="0.2"/><circle cx="440.2" cy="730.3" r="5.4" fill="#efb35f" opacity="0.3"/><circle cx="339" cy="819.4" r="4.3" fill="#62d7d1" opacity="0.3"/><circle cx="491.3" cy="745.9" r="3" fill="#efb35f" opacity="0.2"/><circle cx="1030.7" cy="428.4" r="4.2" fill="#62d7d1" opacity="0.3"/><circle cx="1076.7" cy="498.4" r="5.2" fill="#62d7d1" opacity="0.3"/><circle cx="1159.3" cy="339.8" r="3.8" fill="#62d7d1" opacity="0.2"/><circle cx="825.6" cy="672.4" r="5.3" fill="#62d7d1" opacity="0.4"/><circle cx="810.5" cy="136.2" r="3.8" fill="#62d7d1" opacity="0.2"/><circle cx="1071" cy="794" r="2.9" fill="#efb35f" opacity="0.3"/><circle cx="1003.4" cy="677.8" r="5.3" fill="#62d7d1" opacity="0.3"/><circle cx="1285.4" cy="420" r="5.3" fill="#efb35f" opacity="0.4"/><circle cx="1095.6" cy="644.9" r="5.5" fill="#62d7d1" opacity="0.4"/><circle cx="911.1" cy="532.3" r="2.9" fill="#62d7d1" opacity="0.4"/><circle cx="432" cy="81.5" r="4.7" fill="#62d7d1" opacity="0.4"/><circle cx="1073" cy="475.8" r="5.3" fill="#efb35f" opacity="0.4"/><circle cx="1426.7" cy="515.3" r="5.7" fill="#62d7d1" opacity="0.2"/></g>
  <g transform="translate(1065.8 450.3) rotate(1.3) scale(0.9)"><g fill="none" stroke="#7fa9ff" stroke-width="4" stroke-linecap="round" stroke-linejoin="round" opacity=".28"><path d="M-270 -180 0 -210"/><path d="M-270 -180 0 -105"/><path d="M-270 -180 0 0"/><path d="M-270 -180 0 105"/><path d="M-270 -180 0 210"/><path d="M-270 -60 0 -210"/><path d="M-270 -60 0 -105"/><path d="M-270 -60 0 0"/><path d="M-270 -60 0 105"/><path d="M-270 -60 0 210"/><path d="M-270 60 0 -210"/><path d="M-270 60 0 -105"/><path d="M-270 60 0 0"/><path d="M-270 60 0 105"/><path d="M-270 60 0 210"/><path d="M-270 180 0 -210"/><path d="M-270 180 0 -105"/><path d="M-270 180 0 0"/><path d="M-270 180 0 105"/><path d="M-270 180 0 210"/><path d="M0 -210 270 -120"/><path d="M0 -210 270 0"/><path d="M0 -210 270 120"/><path d="M0 -105 270 -120"/><path d="M0 -105 270 0"/><path d="M0 -105 270 120"/><path d="M0 0 270 -120"/><path d="M0 0 270 0"/><path d="M0 0 270 120"/><path d="M0 105 270 -120"/><path d="M0 105 270 0"/><path d="M0 105 270 120"/><path d="M0 210 270 -120"/><path d="M0 210 270 0"/><path d="M0 210 270 120"/></g><g fill="none" stroke="#62d7d1" stroke-width="6" stroke-linecap="round" stroke-linejoin="round"><circle cx="-270" cy="-180" r="18"/><circle cx="-270" cy="-60" r="18"/><circle cx="-270" cy="60" r="18"/><circle cx="-270" cy="180" r="18"/><circle cy="-210" r="18"/><circle cy="-105" r="18"/><circle cy="0" r="18"/><circle cy="105" r="18"/><circle cy="210" r="18"/><circle cx="270" cy="-120" r="18"/><circle cx="270" cy="0" r="18"/><circle cx="270" cy="120" r="18"/></g><path d="M-322 238C-178 118-92 170 8 54S188-130 324-202" fill="none" stroke="#efb35f" stroke-width="4" stroke-linecap="round" stroke-linejoin="round"/></g>
  <g font-family="Inter, ui-sans-serif, system-ui, -apple-system, BlinkMacSystemFont, Segoe UI, sans-serif">
    <text x="92" y="104" fill="#f4f8fb" font-size="24" font-weight="700" letter-spacing="6">DREAMER ISLAND</text>
    <path d="M92 136h190" stroke="#62d7d1" stroke-width="5"/>
    <text x="92" y="176" fill="#62d7d1" font-size="17" font-weight="650" letter-spacing="4">FLIGHT SYSTEMS</text>
    <text x="92" y="782" fill="#dbe7ee" font-size="17" font-weight="600" letter-spacing="3" opacity=".88">LEARNING / PLANNING</text>
    <text x="92" y="826" fill="#efb35f" font-size="15" font-weight="700" letter-spacing="4">REPRODUCTION LOG / C1A98DB4AE25</text>
  </g>
  <path d="M92 742h260" stroke="#f4f8fb" stroke-width="1" opacity=".24"/>
  <path d="M1492 84v142M1421 155h142" stroke="#62d7d1" stroke-width="2" opacity=".4"/>
</svg>