<svg xmlns="http://www.w3.org/2000/svg" width="1600" height="900" viewBox="0 0 1600 900" role="img" aria-labelledby="cover-title cover-desc">
  <title id="cover-title">Docker-ROS1-DiffPlanner-PX4仿真环境搭建</title>
  <desc id="cover-desc">Dreamer Island FLIGHT SYSTEMS article cover</desc>
  <defs>
    <linearGradient id="bg-eecca2c59d2a" x1="0" y1="0" x2="1" y2="1"><stop stop-color="#07141f"/><stop offset=".54" stop-color="#0a313d"/><stop offset="1" stop-color="#142846"/></linearGradient>
    <radialGradient id="glow-eecca2c59d2a"><stop stop-color="#62d7d1" stop-opacity=".25"/><stop offset="1" stop-color="#62d7d1" stop-opacity="0"/></radialGradient>
    <pattern id="grid-eecca2c59d2a" width="81" height="81" patternUnits="userSpaceOnUse"><path d="M81 0H0V81" fill="none" stroke="#7fa9ff" stroke-width="1" opacity=".11"/></pattern>
  </defs>
  <rect width="1600" height="900" fill="url(#bg-eecca2c59d2a)"/>
  <path d="M930-80 1660 280v700L650 916Z" fill="#7fa9ff" opacity=".045"/>
  <circle cx="969.3" cy="372.9" r="520" fill="url(#glow-eecca2c59d2a)"/>
  <rect width="1600" height="900" fill="url(#grid-eecca2c59d2a)"/>
  <g><path d="M-120 101.4 Q8 121.4 120 110.8 Q238 39.8 350 58.8 Q468 41.4 580 53.9 Q698 113.8 810 79.4 Q928 25.9 1040 85.8 Q1158 140.4 1270 118.2 Q1388 61.8 1500 94.4" fill="none" stroke="#62d7d1" stroke-width="2" opacity="0.1"/><path d="M-120 247.8 Q8 237.5 120 242.3 Q238 228.7 350 261.9 Q468 176.1 580 237.9 Q698 202.5 810 198.6 Q928 252.2 1040 242.3 Q1158 279.5 1270 251.6 Q1388 327.7 1500 261" fill="none" stroke="#7fa9ff" stroke-width="2" opacity="0.1"/><path d="M-120 400.6 Q8 383.5 120 371.9 Q238 444.5 350 423.8 Q468 346 580 381.9 Q698 475 810 419.7 Q928 335.3 1040 382.1 Q1158 344.6 1270 368.1 Q1388 405.4 1500 381.6" fill="none" stroke="#62d7d1" stroke-width="2" opacity="0.1"/><path d="M-120 544.5 Q8 615.4 120 530.7 Q238 611.9 350 579.1 Q468 552.9 580 573.5 Q698 519.1 810 556.6 Q928 477.7 1040 590.8 Q1158 575.5 1270 518.1 Q1388 475.3 1500 527" fill="none" stroke="#7fa9ff" stroke-width="2" opacity="0.2"/><path d="M-120 667.7 Q8 698.8 120 627.9 Q238 704.1 350 710 Q468 622.3 580 666.2 Q698 714.1 810 655.3 Q928 591.7 1040 634 Q1158 645.9 1270 638.3 Q1388 692.2 1500 654.7" fill="none" stroke="#62d7d1" stroke-width="2" opacity="0.1"/><path d="M-120 807.5 Q8 861.7 120 762.4 Q238 782.8 350 839.7 Q468 810.2 580 800.4 Q698 778.5 810 780.8 Q928 873.5 1040 776.9 Q1158 767.8 1270 776.1 Q1388 783.5 1500 854.3" fill="none" stroke="#7fa9ff" stroke-width="2" opacity="0.1"/></g>
  <g><circle cx="649.8" cy="772.2" r="4.4" fill="#62d7d1" opacity="0.2"/><circle cx="434.8" cy="789.9" r="2.8" fill="#62d7d1" opacity="0.3"/><circle cx="431.5" cy="778.3" r="5.2" fill="#62d7d1" opacity="0.3"/><circle cx="465.7" cy="302.4" r="2.1" fill="#efb35f" opacity="0.3"/><circle cx="1316.4" cy="122.9" r="2.8" fill="#62d7d1" opacity="0.2"/><circle cx="1384.2" cy="744.3" r="4.9" fill="#62d7d1" opacity="0.4"/><circle cx="913.5" cy="801" r="4.2" fill="#62d7d1" opacity="0.2"/><circle cx="955.8" cy="378.4" r="5.8" fill="#62d7d1" opacity="0.4"/><circle cx="982.1" cy="184.3" r="2.7" fill="#62d7d1" opacity="0.3"/><circle cx="805.8" cy="255.7" r="6" fill="#62d7d1" opacity="0.3"/><circle cx="1471.9" cy="127.9" r="5.5" fill="#62d7d1" opacity="0.3"/><circle cx="828.7" cy="319.4" r="2.8" fill="#efb35f" opacity="0.3"/><circle cx="672.3" cy="485" r="2.1" fill="#efb35f" opacity="0.4"/><circle cx="668.1" cy="681.2" r="3.6" fill="#62d7d1" opacity="0.4"/><circle cx="680.1" cy="617.6" r="2.9" fill="#62d7d1" opacity="0.2"/><circle cx="804.4" cy="404.7" r="2.8" fill="#62d7d1" opacity="0.4"/><circle cx="1200.1" cy="240.4" r="2.8" fill="#efb35f" opacity="0.2"/><circle cx="826.6" cy="349.9" r="3.7" fill="#62d7d1" opacity="0.3"/></g>
  <g transform="translate(959.9 460.8) rotate(-1.2) scale(0.9)"><g fill="none" stroke="#7fa9ff" stroke-width="4" stroke-linecap="round" stroke-linejoin="round" opacity=".5"><path d="M-316 0h116M-80 0H36M156 0h116"/><path d="m-214-18 30 18-30 18M22-18 52 0 22 18M258-18l30 18-30 18"/></g><g fill="none" stroke="#62d7d1" stroke-width="6" stroke-linecap="round" stroke-linejoin="round"><rect x="-366" y="-92" width="166" height="184"/><circle cx="-283" r="36"/><rect x="-80" y="-92" width="236" height="184"/><path d="M-38 42-2 0l34 24 78-86"/><rect x="272" y="-92" width="94" height="184"/><path d="M288 0h62M319-46v92"/></g><g fill="none" stroke="#efb35f" stroke-width="4" stroke-linecap="round" stroke-linejoin="round"><path d="M-350-124h134M-64-124h204M288-124h62"/></g></g>
  <g font-family="Inter, ui-sans-serif, system-ui, -apple-system, BlinkMacSystemFont, Segoe UI, sans-serif">
    <text x="92" y="104" fill="#f4f8fb" font-size="24" font-weight="700" letter-spacing="6">DREAMER ISLAND</text>
    <path d="M92 136h190" stroke="#62d7d1" stroke-width="5"/>
    <text x="92" y="176" fill="#62d7d1" font-size="17" font-weight="650" letter-spacing="4">FLIGHT SYSTEMS</text>
    <text x="92" y="782" fill="#dbe7ee" font-size="17" font-weight="600" letter-spacing="3" opacity=".88">DIFF-PLANNER / SIM</text>
    <text x="92" y="826" fill="#efb35f" font-size="15" font-weight="700" letter-spacing="4">SYSTEM GUIDE / EECCA2C59D2A</text>
  </g>
  <path d="M92 742h260" stroke="#f4f8fb" stroke-width="1" opacity=".24"/>
  <path d="M1492 84v142M1421 155h142" stroke="#62d7d1" stroke-width="2" opacity=".4"/>
</svg>