<svg xmlns="http://www.w3.org/2000/svg" width="1600" height="900" viewBox="0 0 1600 900" role="img" aria-labelledby="cover-title cover-desc">
  <title id="cover-title">开发工具主题</title>
  <desc id="cover-desc">Dreamer Island ENGINEERING TOOLS article cover</desc>
  <defs>
    <linearGradient id="bg-b98afc150e8e" x1="0" y1="0" x2="1" y2="1"><stop stop-color="#07151f"/><stop offset=".54" stop-color="#102c36"/><stop offset="1" stop-color="#172b48"/></linearGradient>
    <radialGradient id="glow-b98afc150e8e"><stop stop-color="#66d3aa" stop-opacity=".25"/><stop offset="1" stop-color="#66d3aa" stop-opacity="0"/></radialGradient>
    <pattern id="grid-b98afc150e8e" width="69" height="69" patternUnits="userSpaceOnUse"><path d="M69 0H0V69" fill="none" stroke="#7caaff" stroke-width="1" opacity=".11"/></pattern>
  </defs>
  <rect width="1600" height="900" fill="url(#bg-b98afc150e8e)"/>
  <path d="M930-80 1660 280v700L650 916Z" fill="#7caaff" opacity=".045"/>
  <circle cx="924.1" cy="361.3" r="520" fill="url(#glow-b98afc150e8e)"/>
  <rect width="1600" height="900" fill="url(#grid-b98afc150e8e)"/>
  <g><path d="M-120 111.9 Q8 153.9 120 111.3 Q238 40.5 350 82.2 Q468 102.8 580 120.3 Q698 183.4 810 75.1 Q928 121.9 1040 156.3 Q1158 93.5 1270 102.5 Q1388 140.8 1500 79.8" fill="none" stroke="#66d3aa" stroke-width="2" opacity="0.2"/><path d="M-120 239.6 Q8 178 120 237.7 Q238 157.4 350 275.4 Q468 209 580 269.8 Q698 322.3 810 250.8 Q928 176.1 1040 276.5 Q1158 312.9 1270 232.9 Q1388 226.8 1500 286.4" fill="none" stroke="#7caaff" stroke-width="2" opacity="0.2"/><path d="M-120 375.5 Q8 333.4 120 345.2 Q238 416.4 350 414 Q468 437.8 580 369.3 Q698 431.6 810 345.4 Q928 455.5 1040 401.7 Q1158 411.5 1270 380.2 Q1388 312.8 1500 365.9" fill="none" stroke="#66d3aa" stroke-width="2" opacity="0.1"/><path d="M-120 542.4 Q8 464.4 120 511.7 Q238 587.1 350 500.9 Q468 600.8 580 566.4 Q698 506.6 810 573.5 Q928 624.5 1040 499.4 Q1158 561.3 1270 541.5 Q1388 585.9 1500 528.8" fill="none" stroke="#7caaff" stroke-width="2" opacity="0.2"/><path d="M-120 691.9 Q8 681.1 120 731.4 Q238 768.3 350 736.2 Q468 760.5 580 702.3 Q698 683.7 810 681.6 Q928 627.1 1040 728.7 Q1158 627.4 1270 678 Q1388 744.4 1500 675.1" fill="none" stroke="#66d3aa" stroke-width="2" opacity="0.1"/><path d="M-120 809.4 Q8 737.2 120 803.2 Q238 848.1 350 816.2 Q468 813.2 580 825.7 Q698 734.8 810 809.4 Q928 756.3 1040 814.9 Q1158 770.9 1270 817.6 Q1388 777.7 1500 857.3" fill="none" stroke="#7caaff" stroke-width="2" opacity="0.2"/></g>
  <g><circle cx="1214.6" cy="158.7" r="3.8" fill="#efb35f" opacity="0.4"/><circle cx="1426.9" cy="721.7" r="6" fill="#efb35f" opacity="0.2"/><circle cx="181.2" cy="553.9" r="3.9" fill="#efb35f" opacity="0.3"/><circle cx="1045.6" cy="208.9" r="2.5" fill="#efb35f" opacity="0.3"/><circle cx="260.9" cy="754.3" r="5.4" fill="#66d3aa" opacity="0.2"/><circle cx="1190.2" cy="686.9" r="4.7" fill="#efb35f" opacity="0.3"/><circle cx="1363.4" cy="485.7" r="4.1" fill="#66d3aa" opacity="0.2"/><circle cx="1041" cy="580.9" r="5.8" fill="#66d3aa" opacity="0.3"/><circle cx="1162.3" cy="297.2" r="3.9" fill="#66d3aa" opacity="0.3"/><circle cx="125.5" cy="358" r="3.1" fill="#66d3aa" opacity="0.4"/><circle cx="1409.7" cy="144" r="4" fill="#efb35f" opacity="0.2"/><circle cx="780.9" cy="815.4" r="3.9" fill="#efb35f" opacity="0.2"/><circle cx="1189.2" cy="273.2" r="4.2" fill="#66d3aa" opacity="0.2"/><circle cx="1209.2" cy="625.5" r="2.8" fill="#efb35f" opacity="0.4"/><circle cx="1226.6" cy="195.1" r="3.6" fill="#efb35f" opacity="0.3"/><circle cx="635.9" cy="172.4" r="2.1" fill="#66d3aa" opacity="0.4"/><circle cx="731.5" cy="631.3" r="4.2" fill="#66d3aa" opacity="0.2"/><circle cx="978.5" cy="471.4" r="5.5" fill="#66d3aa" opacity="0.3"/></g>
  <g transform="translate(1041.9 452.2) rotate(1.7) scale(0.9)"><g fill="none" stroke="#7caaff" stroke-width="4" stroke-linecap="round" stroke-linejoin="round" opacity=".66"><rect x="-352" y="-244" width="704" height="488" rx="26"/><path d="M-352-148h704"/></g><g fill="none" stroke="#66d3aa" stroke-width="6" stroke-linecap="round" stroke-linejoin="round"><path d="m-242-38 86 70-86 70M-102 112H86"/><path d="M92-62h166M92 14h118M92 90h206" opacity=".78"/></g><path d="M-278-196h16M-228-196h16M-178-196h16" fill="none" stroke="#efb35f" stroke-width="4" stroke-linecap="round" stroke-linejoin="round"/></g>
  <g font-family="Inter, ui-sans-serif, system-ui, -apple-system, BlinkMacSystemFont, Segoe UI, sans-serif">
    <text x="92" y="104" fill="#f4f8fb" font-size="24" font-weight="700" letter-spacing="6">DREAMER ISLAND</text>
    <path d="M92 136h190" stroke="#66d3aa" stroke-width="5"/>
    <text x="92" y="176" fill="#66d3aa" font-size="17" font-weight="650" letter-spacing="4">ENGINEERING TOOLS</text>
    <text x="92" y="782" fill="#dbe7ee" font-size="17" font-weight="600" letter-spacing="3" opacity=".88">TOOLS / WORKFLOW</text>
    <text x="92" y="826" fill="#efb35f" font-size="15" font-weight="700" letter-spacing="4">TOPIC INDEX / B98AFC150E8E</text>
  </g>
  <path d="M92 742h260" stroke="#f4f8fb" stroke-width="1" opacity=".24"/>
  <path d="M1492 84v142M1421 155h142" stroke="#66d3aa" stroke-width="2" opacity=".4"/>
</svg>